<?xml version="1.0" encoding="UTF-8" standalone="no"?>
<svg
   xmlns:dc="http://purl.org/dc/elements/1.1/"
   xmlns:cc="http://creativecommons.org/ns#"
   xmlns:rdf="http://www.w3.org/1999/02/22-rdf-syntax-ns#"
   xmlns:svg="http://www.w3.org/2000/svg"
   xmlns="http://www.w3.org/2000/svg"
   xmlns:sodipodi="http://sodipodi.sourceforge.net/DTD/sodipodi-0.dtd"
   xmlns:inkscape="http://www.inkscape.org/namespaces/inkscape"
   width="6.1872644mm"
   height="6.1759057mm"
   viewBox="0 0 6.1872644 6.1759057"
   version="1.1"
   id="svg8"
   inkscape:version="1.0.2 (e86c870879, 2021-01-15, custom)"
   sodipodi:docname="GraySurvey.svg">
  <defs
     id="defs2" />
  <sodipodi:namedview
     id="base"
     pagecolor="#ffffff"
     bordercolor="#666666"
     borderopacity="1.0"
     inkscape:pageopacity="0.0"
     inkscape:pageshadow="2"
     inkscape:zoom="1.979899"
     inkscape:cx="50.887901"
     inkscape:cy="81.294943"
     inkscape:document-units="mm"
     inkscape:current-layer="layer1"
     inkscape:document-rotation="0"
     showgrid="false"
     inkscape:window-width="1920"
     inkscape:window-height="1027"
     inkscape:window-x="-8"
     inkscape:window-y="-8"
     inkscape:window-maximized="1" />
  <metadata
     id="metadata5">
    <rdf:RDF>
      <cc:Work
         rdf:about="">
        <dc:format>image/svg+xml</dc:format>
        <dc:type
           rdf:resource="http://purl.org/dc/dcmitype/StillImage" />
        <dc:title></dc:title>
      </cc:Work>
    </rdf:RDF>
  </metadata>
  <g
     inkscape:label="Livello 1"
     inkscape:groupmode="layer"
     id="layer1"
     transform="translate(-101.22745,-80.066776)">
    <path
       d="m 105.60713,80.36625 -3.74094,3.741737 c -0.003,0.0027 -0.003,0.0061 -0.006,0.0087 a 0.2619375,0.2619375 0 0 0 -0.0455,0.06879 c -0.003,0.0056 -0.006,0.01085 -0.008,0.01667 -0.002,0.0058 -0.003,0.0061 -0.005,0.0095 l -0.56091,1.68354 a 0.26458333,0.26458333 0 0 0 0.33417,0.334168 l 1.6838,-0.561181 c 0.003,0 0.006,-0.0034 0.01,-0.0045 0.003,-0.0011 0.0109,-0.0053 0.0167,-0.0079 a 0.2619375,0.2619375 0 0 0 0.0688,-0.04551 c 0.003,-0.0024 0.006,-0.0032 0.009,-0.0058 l 3.74147,-3.740679 a 1.0583333,1.0583333 0 0 0 0,-1.496748 1.0847917,1.0847917 0 0 0 -1.49755,-7.9e-4 z m -3.69676,5.1943 0.2585,-0.775759 0.51726,0.517261 z m 1.26551,-0.516996 -0.74851,-0.748506 3.17976,-3.180557 0.7493,0.7493 z m 3.55467,-3.554677 -0.7485,-0.748507 a 0.54186667,0.54186667 0 0 1 0.7485,0 0.52916667,0.52916667 0 0 1 0,0.748507 z m -1.12342,0.374914 a 0.26458333,0.26458333 0 0 1 0,0.374121 l -2.05793,2.057929 a 0.26458333,0.26458333 0 0 1 -0.37412,-0.374121 l 2.05873,-2.057929 a 0.26458333,0.26458333 0 0 1 0.37332,0 z"
       id="path12"
       style="fill:#ffffff;stroke-width:0.264583" />
  </g>
</svg>
